<svg  viewBox="0 0 50 50" fill="none" xmlns="http://www.w3.org/2000/svg">
<rect  fill="white"/>
<path fill-rule="evenodd" clip-rule="evenodd" d="M23.871 0.00791471C22.6955 0.080019 22.0491 0.145802 21.1432 0.285599C16.8007 0.955655 12.7551 2.74732 9.27928 5.53973C8.61258 6.07534 7.9297 6.69201 7.27815 7.34678C3.2734 11.3715 0.776783 16.5538 0.139972 22.1636C0.0237019 23.1878 0.000420023 23.6588 3.0347e-06 24.9943C-0.000483452 26.6106 0.0573739 27.4085 0.279594 28.8496C1.47472 36.6004 6.30226 43.3786 13.2725 47.0925C16.4045 48.7613 19.7987 49.7179 23.4713 49.9667C24.1301 50.0113 25.9286 50.011 26.6047 49.9662C30.0196 49.7396 33.1989 48.8852 36.1895 47.3902C36.9174 47.0263 37.4125 46.7581 37.7954 46.5202C37.8867 46.4635 37.9775 46.4298 38.0006 46.444C38.026 46.4597 38.0328 46.4548 38.0182 46.4312C38.005 46.41 38.0298 46.3744 38.0736 46.3514C38.2719 46.2477 39.077 45.714 39.5254 45.389C40.2539 44.861 40.4807 44.6848 41.1412 44.1337C42.5295 42.9753 43.8159 41.6149 44.9859 40.0681C47.5606 36.664 49.2206 32.6419 49.7921 28.4229C49.97 27.1103 50.0003 26.6091 50 24.9943C49.9996 23.3844 49.9721 22.9357 49.7919 21.6003C49.0625 16.1978 46.5478 11.1515 42.656 7.28062C38.8847 3.5297 34.0746 1.09125 28.8574 0.28553C28.2267 0.188106 27.5774 0.111243 26.9115 0.0551851C26.4753 0.0184383 24.2608 -0.0159811 23.871 0.00791471ZM30.3402 9.77245C30.3996 10.2155 30.542 10.7947 30.7183 11.3097C31.647 14.0239 33.9982 16.1169 36.8055 16.7284C37.118 16.7964 37.7919 16.8993 37.9356 16.9009C37.993 16.9016 37.9964 17.0489 37.9964 19.5018V22.102L37.8352 22.1241C37.5485 22.1634 36.7395 22.1476 36.2784 22.0937C33.9571 21.8223 31.8459 20.6023 30.4986 18.7537C30.37 18.5773 30.2534 18.4323 30.2394 18.4314C30.2255 18.4306 30.2095 21.544 30.2038 25.3503C30.1923 33.0246 30.2105 32.4117 29.9633 33.4516C29.6515 34.7631 28.9734 36.151 28.1395 37.1842C25.6527 40.2656 21.523 41.5047 17.7899 40.2896C16.3326 39.8153 15.0699 39.0398 13.9832 37.9518C13.2252 37.193 12.6434 36.3808 12.1775 35.4314C11.4642 33.978 11.169 32.605 11.2154 30.957C11.2445 29.9206 11.3734 29.1825 11.6957 28.207C11.915 27.5431 12.3868 26.5785 12.778 25.9942C14.1029 24.0154 16.0923 22.5993 18.3502 22.0281C19.2799 21.7929 20.5464 21.6681 21.1559 21.7516L21.3174 21.7737L21.3085 24.1047L21.2995 26.4357L21.1258 26.4183C20.7497 26.3807 20.117 26.4114 19.764 26.4845C18.4773 26.7505 17.3959 27.4766 16.6624 28.5668C16.4508 28.8813 16.1582 29.5084 16.0524 29.8742C15.8522 30.5663 15.808 31.3459 15.9291 32.0502C16.0183 32.5693 16.1316 32.9108 16.3824 33.4169C17.2539 35.175 19.1811 36.2555 21.1197 36.0728C22.4282 35.9495 23.4543 35.4718 24.3583 34.5652C25.0685 33.853 25.4512 33.1634 25.6803 32.1832C25.7361 31.9442 25.743 31.485 25.7658 26.4704C25.7795 23.4713 25.7926 18.4216 25.7951 15.249C25.7975 12.0763 25.8101 9.46997 25.8229 9.45708C25.8358 9.44423 26.8478 9.4377 28.0718 9.44263L30.2972 9.45156L30.3402 9.77245Z" fill="black"/>
</svg>
